<svg xmlns="http://www.w3.org/2000/svg" viewBox="0 0 174.32 174.32"><defs><style>.cls-1{fill:#cdfcf4;}</style></defs><g id="Layer_2" data-name="Layer 2"><g id="Layer_1-2" data-name="Layer 1"><path class="cls-1" d="M87,0c47.77-.15,87.15,38.88,87.29,86.53.14,48.31-38.57,87.59-86.53,87.79C39.54,174.53.12,135.67,0,87.8A87.21,87.21,0,0,1,87,0ZM71.81,18.54A12.12,12.12,0,0,0,71.32,21q2.07,42.89,4.28,85.78c.05,1,1.2,2.83,1.88,2.85,7.07.21,14.14.13,21.58.13.43-8.73.83-16.69,1.22-24.65,1-21,2.07-41.9,2.92-62.86,0-1.19-1.6-3.5-2.5-3.52C91.09,18.44,81.48,18.54,71.81,18.54Zm-2.61,119c.09,11,7.74,18.5,18.62,18.34,10.17-.15,17.71-8,17.72-18.34,0-10.78-8-18.88-18.5-18.68S69.11,126.79,69.2,137.5Z"/></g></g></svg>