<svg xmlns="http://www.w3.org/2000/svg" viewBox="0 0 484.72 576.13"><defs><style>.cls-1{fill:#60656b;}.cls-2{fill:#363a41;}</style></defs><g id="Layer_2" data-name="Layer 2"><g id="Layer_1-2" data-name="Layer 1"><path class="cls-1" d="M53.56,257.4c.1-2.26.24-4,.25-5.83.15-24.16-1-48.41.66-72.47,5.28-77.57,44-133.24,115.08-164C249.17-19.29,341.07,6.7,393.27,75.89,418.47,109.3,430.79,147.17,431,189c.09,21.17.13,42.33-.07,63.5,0,4.07,1.29,5,5.12,5,14.33-.19,28.67-.08,43-.08h5.69V576.13H0V257.4Zm71.65-.4H359.15c.09-1.64.22-2.79.22-3.94,0-21.83.21-43.66,0-65.48-.74-70-62.8-124-132.13-115a117.23,117.23,0,0,0-102,115.57c-.06,15.16,0,30.32,0,45.48Z"/><path class="cls-2" d="M125.21,257V233.65c0-15.16,0-30.32,0-45.48a117.23,117.23,0,0,1,102-115.57c69.33-9,131.39,45,132.13,115,.23,21.82,0,43.65,0,65.48,0,1.15-.13,2.3-.22,3.94Z"/></g></g></svg>