<svg xmlns="http://www.w3.org/2000/svg" viewBox="0 0 898 980"><defs><style>.cls-1{fill:#5f646a;}</style></defs><g id="Layer_2" data-name="Layer 2"><g id="Layer_1-2" data-name="Layer 1"><path class="cls-1" d="M742,980H159c-1.63-.27-3.25-.56-4.88-.82-14.57-2.38-29.63-3.16-43.63-7.42C53.82,954.55,17.9,916.9,4.11,859,1.71,848.93,1.32,838.35,0,828V774c.26-2.12.69-4.23.77-6.35A585.58,585.58,0,0,1,13,666.12C22.44,622.46,36.27,580.37,59,541.63c25.42-43.45,61.41-73.33,110.78-86.29,34.73-9.11,66.2-5,94.83,18.46,20.81,17.05,44.63,29.59,69.51,39.9C399.82,541,466.73,546.43,535,523.93c39.87-13.15,76.37-32.88,110.08-57.72,11.54-8.51,23.81-15.12,38.21-15.62a152.27,152.27,0,0,1,31.27,2c52.77,9.17,92,38.39,120.34,83,23.18,36.55,37.6,76.64,47,118.66C889.73,689,893.61,724.25,896,759.67c.58,8.45,1.32,16.89,2,25.33v36c-1,8.74-1.78,17.5-3,26.21C885.89,914.3,837.64,964.48,771.11,976,761.47,977.67,751.71,978.68,742,980Z"/><path class="cls-1" d="M465,0c11,1.61,22.22,2.43,33,5,101.2,23.82,166.23,86.25,189.23,187.28,20.21,88.81-4.8,167.05-70.42,230.76-39.13,38-86.9,59.21-141.18,65.06-62,6.68-118.85-7.8-169.53-44.22-50.2-36.08-82-84.82-95.94-145C184.52,188.06,239.49,73.6,341.9,24.36A241.22,241.22,0,0,1,429.63.83,35,35,0,0,0,434,0Z"/></g></g></svg>